<?xml version="1.0" encoding="UTF-8"?>
<svg version="1.1" xmlns="http://www.w3.org/2000/svg" width="1338" height="675">
<path d="M0 0 C0.98065744 -0.00239811 1.96131489 -0.00479622 2.97168922 -0.007267 C3.76959971 -0.00976141 4.5675102 -0.01225582 5.3895998 -0.01482582 C21.62588438 0.20241561 34.79449949 6.20036373 46.67635536 17.03628159 C57.31277963 28.04088977 61.79931219 41.7662396 61.6981144 56.78886032 C61.70067767 58.20309529 61.70067767 58.20309529 61.70329273 59.64590067 C61.70656832 62.78269852 61.69561585 65.91927906 61.68465614 69.05605698 C61.68409161 71.31351339 61.68440941 73.57097016 61.68554115 75.82842636 C61.68611403 81.94136716 61.67437017 88.05422917 61.66039324 94.16715169 C61.64787508 100.56130398 61.64671452 106.95545816 61.64434242 113.34962082 C61.6388362 124.07681521 61.62635106 134.80397524 61.60848427 145.53115463 C61.59010638 156.57672609 61.57595923 167.62228971 61.56746864 178.66787338 C61.5669432 179.34953086 61.56641775 180.03118833 61.56587638 180.7335021 C61.56326617 184.15341866 61.56073879 187.57333527 61.55825257 190.99325192 C61.53754299 219.33314009 61.50068564 247.67298055 61.45760536 276.01284409 C42.97760536 276.01284409 24.49760536 276.01284409 5.45760536 276.01284409 C5.45349648 269.65244858 5.44938759 263.29205307 5.44515419 256.7389183 C5.42797943 235.75613492 5.38376856 214.77347343 5.32551479 193.79076576 C5.29084889 181.06529317 5.26550716 168.33992908 5.26204872 155.61440659 C5.25901107 144.52395799 5.23854723 133.43370256 5.19708079 122.3433286 C5.17573125 116.46999525 5.16316036 110.59693666 5.17145157 104.72356415 C5.17897913 99.19622119 5.16322107 93.66943553 5.12954521 88.14219475 C5.1212964 86.11290949 5.12158021 84.08356898 5.13100815 82.05428886 C5.14260619 79.28378285 5.12354859 76.51511052 5.09684181 73.74474716 C5.10751507 72.94123412 5.11818833 72.13772108 5.12918502 71.30985916 C5.05828873 67.36932032 4.67270643 64.76276391 2.23015308 61.59210014 C-15.09590183 45.47395302 -44.88133399 56.38841648 -68.54239464 56.01284409 C-68.54239464 128.61284409 -68.54239464 201.21284409 -68.54239464 276.01284409 C-87.02239464 276.01284409 -105.50239464 276.01284409 -124.54239464 276.01284409 C-124.54239464 203.41284409 -124.54239464 130.81284409 -124.54239464 56.01284409 C-148.96239464 56.01284409 -173.38239464 56.01284409 -198.54239464 56.01284409 C-198.54239464 128.61284409 -198.54239464 201.21284409 -198.54239464 276.01284409 C-217.02239464 276.01284409 -235.50239464 276.01284409 -254.54239464 276.01284409 C-254.60860114 247.17125268 -254.6639666 218.32971899 -254.69559063 189.48807041 C-254.69934249 186.07868494 -254.70322548 182.66929963 -254.70718956 179.2599144 C-254.70797649 178.58120196 -254.70876342 177.90248951 -254.7095742 177.20321003 C-254.72260803 166.23112972 -254.74625066 155.25909684 -254.77385303 144.28704461 C-254.80196364 133.01850742 -254.81835845 121.74999381 -254.82466012 110.4814198 C-254.82856528 104.15632431 -254.83772039 97.8313362 -254.85958481 91.50627518 C-254.88001575 85.54736543 -254.88621505 79.58860683 -254.88171768 73.62966537 C-254.88253993 71.44806979 -254.88846597 69.26646891 -254.90001106 67.08490372 C-254.99877627 47.45165207 -252.95933341 32.11889728 -238.89005089 17.29800034 C-227.92880049 6.62856359 -215.2456548 0.69558289 -199.87178612 0.73437119 C-199.03558371 0.72857878 -198.1993813 0.72278638 -197.33783942 0.71681845 C-194.55531728 0.69990834 -191.77296193 0.69694961 -188.99039268 0.69399643 C-186.98737753 0.68469127 -184.98436623 0.67452173 -182.98135948 0.66355515 C-177.55358996 0.63628743 -172.12584638 0.6211119 -166.69802642 0.60812712 C-161.00832725 0.59245987 -155.31868047 0.56567436 -149.62901878 0.54009628 C-138.84762264 0.49332042 -128.06621647 0.45658072 -117.28477079 0.42342341 C-105.05380771 0.38530747 -92.82289904 0.33581462 -80.59198129 0.28543925 C-61.5555385 0.20732034 -42.51908064 0.13543636 -23.48258018 0.07290268 C-22.0596374 0.06815084 -22.0596374 0.06815084 -20.6079483 0.06330299 C-15.60197926 0.04668802 -10.59601058 0.0313323 -5.59003043 0.01846457 C-3.72668381 0.01334993 -1.86334139 0.00675614 0 0 Z " fill="#FFFFFF" transform="translate(1256.5423946380615,244.98715591430664)"/>
<path d="M0 0 C1.39201407 -0.00128164 1.39201407 -0.00128164 2.81214964 -0.00258917 C5.91674784 -0.00423418 9.02129181 0.0012614 12.12588501 0.00672913 C14.35334268 0.00701123 16.58080044 0.0068528 18.80825806 0.00628662 C24.85317266 0.00599957 30.89806744 0.01188143 36.94297743 0.01886058 C43.26107654 0.02510944 49.5791761 0.02569913 55.89727783 0.02688599 C66.5011534 0.02964151 77.10502113 0.03588884 87.70889282 0.04481506 C98.62946537 0.0539983 109.55003594 0.06107468 120.47061157 0.06532288 C121.48083856 0.06571696 121.48083856 0.06571696 122.51147418 0.06611901 C125.89025046 0.06742407 129.26902676 0.06868777 132.64780307 0.06993091 C160.66475341 0.08029254 188.68169571 0.09797576 216.69863892 0.12025452 C216.7176158 1.71387673 216.73112413 3.30756465 216.74234009 4.90126038 C216.75045212 5.78873459 216.75856415 6.6762088 216.766922 7.59057617 C216.39893183 21.22348127 208.00969234 32.94590497 198.69863892 42.12025452 C185.48863706 53.87244632 171.9287059 56.58270078 154.58218384 56.489151 C152.9844029 56.49162371 151.38662359 56.49546686 149.78884888 56.50056458 C146.36986538 56.50885357 142.95104874 56.50813729 139.53206444 56.50037956 C134.12326313 56.48873169 128.71467363 56.50101115 123.30589294 56.51699829 C109.88062787 56.55307351 96.455369 56.55941892 83.03005981 56.55690002 C72.57602133 56.55518855 62.12215744 56.56229609 51.66816789 56.59687859 C46.29318549 56.6136584 40.9186297 56.61189176 35.54364908 56.59605587 C32.20218417 56.5902584 28.86092168 56.6009987 25.5194931 56.61630249 C23.97233744 56.62002732 22.42514772 56.61692462 20.87802315 56.60643196 C18.76292322 56.5930439 16.64929715 56.60428225 14.53425598 56.62145996 C13.35205569 56.62125068 12.1698554 56.62104139 10.95183086 56.62082577 C5.95640447 57.38772166 2.9343559 59.53690121 -0.15171051 63.49115086 C-1.50325146 66.58195196 -1.68388093 68.81596477 -1.69577026 72.18591309 C-1.70712006 73.40416779 -1.71846985 74.62242249 -1.73016357 75.87759399 C-1.7275205 77.21946783 -1.72454932 78.56134104 -1.72128296 79.9032135 C-1.72862599 81.32277595 -1.7372129 82.74233243 -1.74694824 84.16188049 C-1.76914769 88.01109105 -1.77209576 91.86008743 -1.77020073 95.70935321 C-1.77008096 98.92507259 -1.77864748 102.1407467 -1.78697824 105.35645348 C-1.80620636 112.94384827 -1.80909818 120.53113305 -1.80233765 128.11854553 C-1.79569574 135.9411602 -1.81856825 143.76330347 -1.85565138 151.58582252 C-1.88635529 158.30700821 -1.89770772 165.02804231 -1.89381456 171.74929672 C-1.8917479 175.76143952 -1.89721322 179.7732154 -1.92170715 183.78529167 C-1.94398383 187.55873731 -1.94208977 191.33141676 -1.92177963 195.10486603 C-1.91837121 196.48754281 -1.92345172 197.87027127 -1.93776321 199.25287819 C-2.28005053 207.53065253 -2.28005053 207.53065253 0.92459106 214.86477661 C5.35823757 218.46961411 8.9499406 219.36963635 14.61244202 219.38095093 C16.38933914 219.39157814 16.38933914 219.39157814 18.20213318 219.40242004 C20.1387104 219.39870392 20.1387104 219.39870392 22.1144104 219.39491272 C23.4945605 219.39926227 24.87470818 219.40444624 26.25485229 219.41040039 C29.99660256 219.42377524 33.73825173 219.42437078 37.48002124 219.42183709 C40.60625776 219.42076639 43.73247391 219.42565326 46.85870606 219.43044251 C54.23513477 219.44153237 61.61151255 219.44197798 68.98794556 219.43592834 C76.5923171 219.42988758 84.19650367 219.44220329 91.80084366 219.46349841 C98.33517873 219.48112283 104.86945498 219.48711447 111.40381294 219.48386067 C115.30407973 219.48204907 119.20421454 219.48467168 123.10445976 219.49857521 C126.77268939 219.51116275 130.44063093 219.50920091 134.1088562 219.49616432 C136.09245049 219.49267627 138.07605361 219.50396958 140.05961609 219.51573181 C141.84074295 219.50521034 141.84074295 219.50521034 143.65785217 219.49447632 C144.68560981 219.49464406 145.71336744 219.4948118 146.77226925 219.49498463 C153.21306929 218.67022153 155.64288231 216.18995027 159.69863892 211.12025452 C160.02863892 196.27025452 160.35863892 181.42025452 160.69863892 166.12025452 C124.39863892 166.12025452 88.09863892 166.12025452 50.69863892 166.12025452 C50.69863892 147.64025452 50.69863892 129.16025452 50.69863892 110.12025452 C105.47863892 110.12025452 160.25863892 110.12025452 216.69863892 110.12025452 C216.78113892 129.65212952 216.86363892 149.18400452 216.94863892 169.30775452 C216.98505493 175.45424622 217.02147095 181.60073792 217.05899048 187.93348694 C217.07705688 195.49195862 217.07705688 195.49195862 217.08041382 199.0406189 C217.08651952 201.49674384 217.10051125 203.95285747 217.12094116 206.40890503 C217.15047288 210.14907875 217.15425458 213.88852559 217.15274048 217.62879944 C217.16713291 218.70622752 217.18152534 219.78365561 217.19635391 220.89373302 C217.11730897 235.60518114 211.56572381 249.23651628 201.44863892 259.93275452 C189.80930036 270.80401489 176.26131184 276.21431008 160.36517334 276.26742554 C159.64854708 276.27110223 158.93192081 276.27477891 158.1935786 276.27856702 C155.80349364 276.28953843 153.41345225 276.29343658 151.02334595 276.29725647 C149.30459965 276.30352631 147.5858547 276.31017357 145.86711121 276.31716919 C140.23023411 276.3381587 134.59335692 276.34857018 128.95645142 276.35853577 C127.00969301 276.36258592 125.06293473 276.36670292 123.11617661 276.37088585 C113.96343629 276.38993018 104.81070397 276.40416004 95.65794766 276.41249782 C85.12563835 276.42225284 74.59354017 276.44853015 64.06130517 276.48899871 C55.90049036 276.51926859 47.73973569 276.53397715 39.57886589 276.53727883 C34.71468398 276.53961786 29.8507278 276.54842705 24.9866066 276.57374001 C20.4015146 276.59721534 15.81679381 276.60117676 11.23165703 276.59097862 C9.56130035 276.59048776 7.89092416 276.59667306 6.22062492 276.61053467 C-12.98676213 276.76083839 -28.60163928 273.03082796 -42.98104858 259.53041077 C-53.24297166 248.8711405 -58.45246827 236.23152603 -58.4485321 221.49412537 C-58.45404714 220.37207528 -58.45404714 220.37207528 -58.45967358 219.22735751 C-58.47064998 216.7312002 -58.47454394 214.23508462 -58.47836304 211.73890686 C-58.48463227 209.94470591 -58.49127947 208.15050625 -58.49827576 206.35630798 C-58.51926432 200.4729451 -58.52967346 194.58958211 -58.53964233 188.70619202 C-58.54369187 186.67638257 -58.54780885 184.64657325 -58.55199242 182.61676407 C-58.57103285 173.07853012 -58.58526615 163.54030386 -58.59360439 154.00205457 C-58.60337204 143.01182531 -58.62968414 132.0217977 -58.67010528 121.03163946 C-58.70031792 112.52354401 -58.71507815 104.01550622 -58.7183854 95.50735819 C-58.72073001 90.43203876 -58.72961378 85.35693505 -58.75484657 80.28167343 C-58.7782225 75.50289501 -58.78232242 70.72447291 -58.77208519 65.94565201 C-58.77159203 64.19943808 -58.77784715 62.45320603 -58.79164124 60.70704651 C-58.9185336 43.68066502 -55.14474715 29.07179347 -43.05136108 16.30775452 C-30.71140421 4.78210951 -16.6737948 -0.05635155 0 0 Z " fill="#FFFFFF" transform="translate(446.3013610839844,244.87974548339844)"/>
<path d="M0 0 C0.89052441 -0.00239811 1.78104881 -0.00479622 2.69855881 -0.007267 C3.43817163 -0.00976141 4.17778446 -0.01225582 4.9398098 -0.01482582 C20.62719359 0.20909069 33.66436744 6.60996261 45.09708786 17.03628159 C54.97188059 27.25289406 60.21224216 40.54177715 60.11884689 54.62427902 C60.12141017 56.04820138 60.12141017 56.04820138 60.12402523 57.50088984 C60.12731104 60.67153745 60.11633131 63.84197193 60.10538864 67.01259995 C60.10482433 69.28946554 60.10514147 71.56633149 60.10627365 73.84319687 C60.10684739 80.01823717 60.09508952 86.19319975 60.08112574 92.368222 C60.06862201 98.82377907 60.06744816 105.27933793 60.06507492 111.73490524 C60.0595653 122.56820811 60.04707343 133.40147911 60.02921677 144.23476791 C60.01084693 155.39101647 59.99669583 166.54725728 59.98820114 177.70351791 C59.98767569 178.39167483 59.98715025 179.07983174 59.98660888 179.7888419 C59.98399872 183.24126787 59.98147133 186.69369389 59.97898507 190.14611995 C59.95826583 218.76838442 59.92140323 247.39060387 59.87833786 276.01284409 C41.72833786 276.01284409 23.57833786 276.01284409 4.87833786 276.01284409 C4.87833786 239.71284409 4.87833786 203.41284409 4.87833786 166.01284409 C-50.23166214 166.01284409 -105.34166214 166.01284409 -162.12166214 166.01284409 C-162.12166214 202.31284409 -162.12166214 238.61284409 -162.12166214 276.01284409 C-180.60166214 276.01284409 -199.08166214 276.01284409 -218.12166214 276.01284409 C-218.18788091 247.31566853 -218.24324162 218.61855106 -218.27485813 189.92131801 C-218.27860995 186.52824259 -218.28249295 183.13516732 -218.28645706 179.74209213 C-218.28763746 178.72890286 -218.28763746 178.72890286 -218.2888417 177.69524511 C-218.30187202 166.77880569 -218.32551268 155.86241399 -218.35312053 144.94600282 C-218.38124097 133.73283347 -218.39762805 122.51968035 -218.40392762 111.30647534 C-218.4078311 105.01320577 -218.41697542 98.7200442 -218.43885231 92.42680931 C-218.45929904 86.49662341 -218.46547939 80.56658942 -218.46098518 74.63637161 C-218.46180673 72.46648392 -218.46772329 70.29659086 -218.47927856 68.12673378 C-218.58004346 48.21917973 -216.81707872 32.41225203 -202.46931839 17.29800034 C-188.7178626 3.91263987 -174.49561142 0.71809336 -155.85847855 0.69399643 C-154.20851531 0.68468777 -152.55855674 0.67451772 -150.90860367 0.66355515 C-146.44368221 0.63632468 -141.97879222 0.62112268 -137.51380968 0.60812712 C-132.82994684 0.59244109 -128.14614733 0.56566097 -123.46232986 0.54009628 C-114.58866725 0.49334804 -105.71499246 0.4565961 -96.84126985 0.42342341 C-86.77723855 0.38529985 -76.7132733 0.33580316 -66.649297 0.28543925 C-50.98077247 0.20732389 -35.31222936 0.13543402 -19.6436348 0.07290268 C-18.47487084 0.06815084 -18.47487084 0.06815084 -17.2824955 0.06330299 C-11.52167057 0.04002667 -5.76082181 0.02370291 0 0 Z M-162.12166214 56.01284409 C-162.12166214 73.83284409 -162.12166214 91.65284409 -162.12166214 110.01284409 C-107.01166214 110.01284409 -51.90166214 110.01284409 4.87833786 110.01284409 C8.02368472 86.31929707 8.02368472 86.31929707 0.37833786 60.27065659 C-4.41771665 56.64863625 -7.43768072 55.8877964 -13.3668251 55.89258957 C-15.32930191 55.89052757 -15.32930191 55.89052757 -17.33142471 55.88842392 C-18.78453468 55.89196309 -20.23764442 55.8955979 -21.69075394 55.8993187 C-23.2182706 55.89960072 -24.7457874 55.89944254 -26.27330399 55.89887619 C-30.42383225 55.89858879 -34.57433172 55.90447622 -38.72485328 55.91145015 C-43.06104496 55.91769328 -47.39723728 55.91828825 -51.73343277 55.91947556 C-59.94630206 55.92258603 -68.15915806 55.93079562 -76.3720215 55.94082505 C-85.72136723 55.95199496 -95.07071359 55.95749885 -104.42006433 55.96252048 C-123.65393933 55.97297846 -142.88779612 55.99132043 -162.12166214 56.01284409 Z " fill="#FFFFFF" transform="translate(910.1216621398926,244.98715591430664)"/>
<path d="M0 0 C0.99 0 1.98 0 3 0 C4.6484375 1.94921875 4.6484375 1.94921875 6.375 4.6875 C6.93960937 5.55761719 7.50421875 6.42773438 8.0859375 7.32421875 C13.85405873 17.7055985 16.5495259 29.26486567 19.125 40.75 C19.40380005 41.9770163 19.40380005 41.9770163 19.68823242 43.2288208 C37.19514944 120.5021834 49.23264419 199.35625077 54.81573486 278.39898682 C54.99104509 280.87359607 55.17262749 283.34767887 55.35498047 285.82177734 C58.59124497 330.66076787 59.22486983 377.2255643 55 422 C54.86978446 423.42838476 54.73957641 424.8567702 54.609375 426.28515625 C48.29849027 494.28484616 34.00680821 569.30339532 -14.05078125 620.8984375 C-15.79527706 622.77927667 -17.43467568 624.70618031 -19.0625 626.6875 C-22.36829199 630.55024607 -26.07297664 633.78166132 -30 637 C-30.90234375 637.75152344 -31.8046875 638.50304687 -32.734375 639.27734375 C-50.3882141 653.45866374 -70.59534287 663.46494983 -92.4375 669.3125 C-93.72092285 669.65825073 -93.72092285 669.65825073 -95.03027344 670.01098633 C-112.16979563 674.30532925 -129.13967245 675.51391376 -146.75 675.375 C-147.75248779 675.37167664 -148.75497559 675.36835327 -149.7878418 675.3649292 C-186.00841495 675.22413078 -186.00841495 675.22413078 -200 670 C-200 669.01 -200 668.02 -200 667 C-199.3618335 667.00870117 -198.72366699 667.01740234 -198.06616211 667.02636719 C-153.73706238 667.35981792 -109.86770152 656.95988981 -76 627 C-75.02546875 626.14664063 -74.0509375 625.29328125 -73.046875 624.4140625 C-42.5559185 597.33440735 -22.71033174 561.00086608 -9 523 C-8.62633301 521.96810547 -8.25266602 520.93621094 -7.86767578 519.87304688 C24.04536681 430.65261735 27.38051534 331.8721965 16.86352539 124.74511719 C16.16737794 118.46269176 15.84207769 112.32127926 16 106 C-22.67811183 114.88077492 -59.65150054 129.7322224 -92 153 C-92.57524414 153.41233887 -93.15048828 153.82467773 -93.74316406 154.24951172 C-97.22040096 156.76061937 -100.62556107 159.35281084 -104 162 C-104.8971875 162.70382813 -105.794375 163.40765625 -106.71875 164.1328125 C-122.21468726 176.55627944 -136.68209212 190.41660647 -149 206 C-149.91942984 207.10880294 -150.84143793 208.21547158 -151.765625 209.3203125 C-175.37924221 237.77644371 -192.35657139 271.4231476 -205 306 C-205.34272949 306.93618164 -205.68545898 307.87236328 -206.03857422 308.83691406 C-217.22876793 339.85233848 -223.98367897 372.28708686 -228.1875 404.9375 C-228.34250977 406.12472656 -228.49751953 407.31195313 -228.65722656 408.53515625 C-231.56838282 432.4332756 -232.37913144 456.34984922 -232.31805801 480.39779282 C-232.312399 482.66547466 -232.30958968 484.93314897 -232.30697632 487.20083618 C-232.26622146 511.5729326 -231.51654051 535.74512055 -229 560 C-228.83188722 561.67283709 -228.66392092 563.34568892 -228.49609375 565.01855469 C-226.09445354 588.61053265 -222.5540325 611.98471891 -218.59106445 635.36157227 C-218.41962921 636.37599899 -218.24819397 637.39042572 -218.07156372 638.43559265 C-217.74841443 640.34039284 -217.42207567 642.24465567 -217.0920105 644.14826965 C-216.9478067 644.99507797 -216.80360291 645.84188629 -216.6550293 646.71435547 C-216.52799118 647.44927216 -216.40095306 648.18418884 -216.27006531 648.94137573 C-216 651 -216 651 -216 655 C-216.99 654.67 -217.98 654.34 -219 654 C-219.98310744 651.71818861 -220.74732445 649.56744291 -221.4609375 647.19921875 C-221.6877269 646.47698624 -221.9145163 645.75475372 -222.1481781 645.01063538 C-222.90594393 642.57406177 -223.64194706 640.13161571 -224.375 637.6875 C-224.63300385 636.83877319 -224.89100769 635.99004639 -225.15682983 635.11560059 C-244.21416264 572.23899512 -259.97558705 504.73173799 -260.203125 438.6875 C-260.20595238 438.03169952 -260.20877975 437.37589905 -260.21169281 436.70022583 C-260.22654714 433.21616239 -260.23585794 429.73213873 -260.24023438 426.24804688 C-260.24457519 423.44452589 -260.25831435 420.64132028 -260.28125 417.83789062 C-260.86580622 344.79748501 -243.97766484 266.99946145 -196.31054688 209.58691406 C-195.06755325 208.08179884 -193.85317855 206.55318221 -192.640625 205.0234375 C-186.53839124 197.50253155 -179.8238349 190.6132608 -173 183.75 C-172.08629639 182.82703125 -171.17259277 181.9040625 -170.23120117 180.953125 C-125.58817542 136.51362069 -50.08039198 98 14 98 C10.83153674 72.6030341 7.39928873 47.27922632 3.27319336 22.01855469 C3.1288385 21.13434845 2.98448364 20.25014221 2.83575439 19.33914185 C2.56815258 17.7057543 2.29882234 16.07264842 2.02728271 14.43991089 C1.23551155 9.63685526 0.57627022 4.83382988 0 0 Z " fill="#FFFFFF" transform="translate(260,0)"/>
<path d="M0 0 C3.55107874 0.74017522 3.888835 1.13674887 5.921875 3.9375 C6.81058219 5.33025007 7.67718335 6.73730422 8.5234375 8.15625 C8.97332031 8.87167969 9.42320313 9.58710938 9.88671875 10.32421875 C10.99309541 12.08971341 12.07335426 13.87152684 13.1484375 15.65625 C14.4271875 15.49125 15.7059375 15.32625 17.0234375 15.15625 C20.5211138 14.78545204 24.00845738 14.48331539 27.5234375 14.34375 C28.33554688 14.30636719 29.14765625 14.26898438 29.984375 14.23046875 C32.1484375 14.65625 32.1484375 14.65625 33.953125 16.30859375 C35.50278591 19.3522088 35.28618018 21.1511453 34.8984375 24.53125 C34.79273437 25.68367188 34.68703125 26.83609375 34.578125 28.0234375 C34.29555518 30.41243686 33.94811297 32.79480336 33.53125 35.1640625 C32.60150702 41.55783348 32.5871208 45.60063451 36.25048828 50.91992188 C37.4697661 52.52317633 38.75720944 54.07389435 40.046875 55.62109375 C42.47202873 59.12359273 42.98056656 61.42985212 43.1484375 65.65625 C41.57921609 70.12853101 39.85005506 72.91955157 36.5703125 76.36328125 C26.95756615 86.58294234 25.83243928 97.23115402 24.68164062 110.92407227 C24.07062236 114.05498133 22.99510841 116.07016703 21.1484375 118.65625 C19.1484375 119.65625 19.1484375 119.65625 15.40234375 119.69921875 C6.87523828 119.70160233 6.87523828 119.70160233 -0.71044922 123.05615234 C-3.90652794 126.38567903 -6.35465933 130.14955179 -8.79980469 134.04589844 C-10.26846525 136.29457185 -11.717916 138.01688454 -13.8515625 139.65625 C-16.37890625 140.1640625 -16.37890625 140.1640625 -18.8515625 139.65625 C-20.73046875 137.8984375 -20.73046875 137.8984375 -22.4140625 135.53125 C-23.00445312 134.71269531 -23.59484375 133.89414062 -24.203125 133.05078125 C-25.01910156 131.86548828 -25.01910156 131.86548828 -25.8515625 130.65625 C-26.29242188 130.04136719 -26.73328125 129.42648437 -27.1875 128.79296875 C-29.8515625 124.9858156 -29.8515625 124.9858156 -29.8515625 122.65625 C-30.8415625 123.15125 -30.8415625 123.15125 -31.8515625 123.65625 C-34.73526583 123.72819869 -37.59395914 123.74916708 -40.4765625 123.71875 C-41.27835938 123.71423828 -42.08015625 123.70972656 -42.90625 123.70507812 C-44.88805256 123.69328168 -46.86981683 123.67534605 -48.8515625 123.65625 C-49.48881373 90.02354622 -41.49951813 53.6001169 -30.8515625 21.65625 C-30.13613281 21.6975 -29.42070313 21.73875 -28.68359375 21.78125 C-24.16901729 21.59435938 -20.52936275 21.16663516 -17.05566406 18.03955078 C-13.46029339 14.07640488 -10.27642679 9.80435287 -7.19506836 5.43383789 C-4.94816106 2.46096272 -3.70902176 0.85358309 0 0 Z " fill="#FFFFFF" transform="translate(91.8515625,307.34375)"/>
<path d="M0 0 C0.41357113 5.93763113 -0.78114781 9.60280427 -3.359375 14.76953125 C-3.70502502 15.49057541 -4.05067505 16.21161957 -4.40679932 16.95451355 C-5.50852891 19.24689234 -6.62834241 21.52981571 -7.75 23.8125 C-18.39543616 42.20698387 -18.39543616 42.20698387 -20.10009766 62.08496094 C-18.76931464 65.72629482 -17.31756349 69.30358337 -15.8125 72.875 C-15.31685547 74.09058594 -14.82121094 75.30617188 -14.31054688 76.55859375 C-12.48131734 81.03863543 -10.62362954 85.50650355 -8.7590332 89.97192383 C-8.21702271 91.29099731 -8.21702271 91.29099731 -7.6640625 92.63671875 C-7.35033691 93.39170654 -7.03661133 94.14669434 -6.71337891 94.92456055 C-5.62915195 98.07891146 -5.53132059 100.71924411 -6 104 C-7.56807165 106.08057316 -8.48566858 106.89061145 -11.05326843 107.43669128 C-11.83966202 107.46555923 -12.6260556 107.49442719 -13.4362793 107.52416992 C-14.33118576 107.56398483 -15.22609222 107.60379974 -16.14811707 107.64482117 C-17.11373062 107.67308487 -18.07934418 107.70134857 -19.07421875 107.73046875 C-20.07201859 107.770616 -21.06981842 107.81076324 -22.09785461 107.85212708 C-25.29405722 107.97732981 -28.49057751 108.08246616 -31.6875 108.1875 C-33.82231472 108.26890488 -35.95708168 108.35157257 -38.09179688 108.43554688 C-43.72727371 108.6505102 -49.36218897 108.85688695 -55 109 C-55.77488266 109.02342468 -56.54976532 109.04684937 -57.34812927 109.07098389 C-60.7081117 109.13363979 -62.73435682 109.13902118 -65.76171875 107.5546875 C-68.82161472 104.06224079 -70.21631266 100.44856392 -71.8125 96.125 C-72.14507812 95.25311035 -72.47765625 94.3812207 -72.8203125 93.48291016 C-73.52593983 91.62337072 -74.22448066 89.76112929 -74.91650391 87.89648438 C-76.01280193 84.9657769 -77.14955979 82.05323738 -78.29296875 79.140625 C-79.03020336 77.21934693 -79.76592095 75.29748595 -80.5 73.375 C-80.8503833 72.48828613 -81.2007666 71.60157227 -81.56176758 70.68798828 C-84.88104902 61.77917397 -85.21862399 54.55930033 -81.328125 45.79882812 C-80.67070312 44.4134082 -80.67070312 44.4134082 -80 43 C-79.47921875 41.87529297 -78.9584375 40.75058594 -78.421875 39.59179688 C-76.9534445 36.44308638 -75.4516634 33.31152527 -73.93652344 30.18505859 C-72.99613007 28.24200389 -72.06422782 26.29502773 -71.1328125 24.34765625 C-70.52654774 23.09090158 -69.91979396 21.83438266 -69.3125 20.578125 C-68.77238281 19.45825195 -68.23226562 18.33837891 -67.67578125 17.18457031 C-65.09843294 12.28670735 -62.76176896 7.98493052 -58 5 C-55.49584961 4.40472412 -55.49584961 4.40472412 -52.65234375 4.09277344 C-51.58443604 3.96964783 -50.51652832 3.84652222 -49.41625977 3.71966553 C-48.26826904 3.60076965 -47.12027832 3.48187378 -45.9375 3.359375 C-44.75406006 3.2280719 -43.57062012 3.0967688 -42.35131836 2.96148682 C-39.85042518 2.68673813 -37.3488484 2.4181522 -34.84667969 2.15527344 C-31.01317498 1.75138807 -27.18243537 1.32649547 -23.3515625 0.8984375 C-20.92201034 0.63416944 -18.49232659 0.3711078 -16.0625 0.109375 C-14.34051392 -0.0811142 -14.34051392 -0.0811142 -12.58374023 -0.27545166 C-10.98187866 -0.44122711 -10.98187866 -0.44122711 -9.34765625 -0.61035156 C-7.94012085 -0.75999359 -7.94012085 -0.75999359 -6.50415039 -0.91265869 C-4.09264199 -0.99676878 -2.28885185 -0.72048682 0 0 Z " fill="#FFFFFF" transform="translate(254,315)"/>
<path d="M0 0 C4.97912792 1.40918715 7.67445056 4.35918865 11.3125 7.9375 C12.9556528 9.47564905 14.60931412 11.00187006 16.26513672 12.52636719 C17.39920006 13.57137799 18.52989047 14.62006419 19.65673828 15.67285156 C20.18638184 16.16624023 20.71602539 16.65962891 21.26171875 17.16796875 C21.77653809 17.65056152 22.29135742 18.1331543 22.82177734 18.63037109 C24.44480916 20.11173592 24.44480916 20.11173592 27.01953125 21.73828125 C31.37496797 25.91564219 32.2473302 30.85765274 32.43016052 36.69255066 C32.35258593 41.31085481 32.07615475 45.9174021 31.80078125 50.52734375 C31.71030474 52.23923543 31.62115028 53.95119743 31.5332489 55.66322327 C31.34601876 59.24026591 31.14739647 62.81642248 30.93969727 66.39233398 C30.67514909 70.95164857 30.43211615 75.51177692 30.196805 80.07268429 C30.01334463 83.60512871 29.8219165 87.13710431 29.62779808 90.66897774 C29.53571794 92.34923171 29.44523178 94.02957388 29.35643959 95.71000481 C28.89895624 104.23716911 28.41826399 112.62190994 26.3125 120.9375 C23.3125 121.9375 23.3125 121.9375 21.55761719 121.19995117 C20.91469727 120.79752197 20.27177734 120.39509277 19.609375 119.98046875 C18.88331055 119.53155273 18.15724609 119.08263672 17.40917969 118.62011719 C16.63477539 118.12672852 15.86037109 117.63333984 15.0625 117.125 C13.86608887 116.3829834 13.86608887 116.3829834 12.64550781 115.62597656 C8.69525452 113.15726443 4.81215116 110.61860831 1 107.94140625 C0.33387695 107.47774658 -0.33224609 107.01408691 -1.01855469 106.53637695 C-2.27028051 105.65650607 -3.51125227 104.76107301 -4.73925781 103.84838867 C-7.53432597 101.87870175 -9.29577921 100.93999822 -12.75 100.91796875 C-16.20420182 102.11683401 -18.56236783 103.74834262 -21.4375 106 C-26.50296573 109.9375 -26.50296573 109.9375 -28.6875 109.9375 C-29.61487556 107.15537332 -29.90057368 105.12039384 -30.07641602 102.22363281 C-30.136297 101.26176559 -30.19617798 100.29989838 -30.25787354 99.30888367 C-30.31843933 98.26335831 -30.37900513 97.21783295 -30.44140625 96.140625 C-30.50753113 95.05147293 -30.57365601 93.96232086 -30.64178467 92.84016418 C-31.21414484 83.23806019 -31.6972702 73.63149026 -32.15742493 64.02342224 C-32.44810023 58.08735215 -32.80369764 52.17129837 -33.32357788 46.25093079 C-35.01941803 26.54692827 -35.01941803 26.54692827 -31.08496094 20.45703125 C-26.98625691 16.0014896 -22.25691204 13.01632902 -16.94433594 10.19091797 C-13.82325597 8.45750986 -11.25933544 6.32330004 -8.5 4.0625 C-5.45340157 1.91223312 -3.66759721 0.93243997 0 0 Z " fill="#FFFFFF" transform="translate(74.6875,477.0625)"/>
<path d="M0 0 C0.598125 0.20625 1.19625 0.4125 1.8125 0.625 C1.28127483 6.02904603 0.3266469 10.58924847 -1.5925293 15.70849609 C-1.95868095 16.69564857 -1.95868095 16.69564857 -2.33222961 17.70274353 C-3.13323484 19.85472902 -3.94692069 22.00164017 -4.76171875 24.1484375 C-5.32932825 25.65986189 -5.89644306 27.17147215 -6.46308899 28.68325806 C-7.65019692 31.8441124 -8.8437043 35.00245477 -10.04174805 38.15917969 C-11.56617759 42.17763237 -13.07383916 46.20213195 -14.57658672 50.22873497 C-15.74408715 53.35091711 -16.92092353 56.46951824 -18.10044289 59.58717728 C-18.65945657 61.06823699 -19.21558162 62.55039072 -19.76859093 64.03370285 C-25.9791208 80.6592952 -32.59594605 91.17842917 -48.1875 100.125 C-49.94270662 101.15403519 -51.69655033 102.18539764 -53.44921875 103.21875 C-54.3726709 103.76273437 -55.29612305 104.30671875 -56.24755859 104.8671875 C-62.58155234 108.65432875 -68.80959552 112.61441241 -75.05273438 116.54882812 C-77.75863528 118.25025203 -80.47057806 119.94124371 -83.1875 121.625 C-83.88407715 122.06199219 -84.5806543 122.49898438 -85.29833984 122.94921875 C-88.64581256 124.97637354 -90.15172502 125.625 -94.1875 125.625 C-94.62484971 119.44821262 -93.13552331 114.90356619 -90.890625 109.1875 C-90.54569504 108.28180267 -90.20076508 107.37610535 -89.84538269 106.44296265 C-88.720953 103.49906688 -87.57994403 100.56194689 -86.4375 97.625 C-85.65553068 95.59487204 -84.87436711 93.56443354 -84.09399414 91.53369141 C-82.91696819 88.47350631 -81.73826659 85.41402466 -80.55409241 82.3565979 C-78.21018282 76.30440199 -75.91564265 70.23694962 -73.66796875 64.1484375 C-72.89445599 62.07440136 -72.11903707 60.00109343 -71.34240723 57.92822266 C-70.64980625 56.06667338 -69.97255848 54.19943399 -69.29589844 52.33203125 C-64.23810463 38.97124761 -57.9765141 31.04864668 -45.3125 24.375 C-43.59974641 23.4306144 -41.88701589 22.48618426 -40.1756134 21.53935242 C-38.39725575 20.55929677 -36.61336429 19.5899374 -34.82861328 18.62158203 C-29.31987085 15.61844864 -23.90002513 12.46037001 -18.47381592 9.31140137 C-16.77702655 8.3281611 -15.07725535 7.35007243 -13.37744141 6.37207031 C-12.3466748 5.7787793 -11.3159082 5.18548828 -10.25390625 4.57421875 C-9.34584229 4.05174561 -8.43777832 3.52927246 -7.50219727 2.9909668 C-1.88598958 -0.3233125 -1.88598958 -0.3233125 0 0 Z " fill="#FFFFFF" transform="translate(242.1875,172.375)"/>
<path d="M0 0 C1.31749489 -0.00143509 1.31749489 -0.00143509 2.66160583 -0.00289917 C4.50446647 -0.00357488 6.34732958 -0.00176344 8.19018555 0.00244141 C10.99207962 0.00780482 13.79381391 0.00247227 16.59570312 -0.00390625 C18.39713577 -0.00324549 20.19856831 -0.00196436 22 0 C22.82730118 -0.00202423 23.65460236 -0.00404846 24.50697327 -0.00613403 C29.5678375 0.01402864 34.42330386 0.41044699 39.43359375 1.1328125 C39.43359375 1.7928125 39.43359375 2.4528125 39.43359375 3.1328125 C38.76118652 3.19750732 38.0887793 3.26220215 37.39599609 3.32885742 C-15.46608452 8.55584129 -63.70336835 27.95055699 -104.56640625 62.1328125 C-105.50226563 62.88433594 -106.438125 63.63585937 -107.40234375 64.41015625 C-115.87874504 71.33400162 -123.63026631 78.9809956 -131.37890625 86.6953125 C-131.91452179 87.22575165 -132.45013733 87.7561908 -133.00198364 88.30270386 C-139.99551539 95.24294492 -146.45546717 102.38704092 -152.56640625 110.1328125 C-153.57970926 111.37559477 -154.59504402 112.61672596 -155.61328125 113.85546875 C-165.92941132 126.55568819 -175.60042642 139.74545379 -184.40869141 153.5390625 C-186.29851681 156.45474663 -187.62824619 158.17403913 -190.56640625 160.1328125 C-189.97616523 153.77230479 -188.00945592 148.21149349 -185.75390625 142.2578125 C-185.35864746 141.21351074 -184.96338867 140.16920898 -184.55615234 139.09326172 C-175.38156187 115.39488794 -163.81753016 92.76436131 -147.56640625 73.1328125 C-147.09058105 72.55547363 -146.61475586 71.97813477 -146.12451172 71.38330078 C-112.049778 30.27392649 -65.01083809 6.07565207 -11.98725891 0.33753967 C-7.99095928 -0.00042023 -4.00838498 -0.00983173 0 0 Z " fill="#FFFFFF" transform="translate(206.56640625,77.8671875)"/>
<path d="M0 0 C7.1873548 0.32623454 12.69758923 3.64001191 18.9375 7 C20.04254883 7.58724854 21.14759766 8.17449707 22.28613281 8.77954102 C24.50147238 9.96098012 26.71393782 11.14782608 28.92333984 12.34033203 C31.61473439 13.79217302 34.31517445 15.22487455 37.01953125 16.65234375 C38.43064694 17.41228362 39.84088575 18.17385536 41.25 18.9375 C41.87382568 19.26556641 42.49765137 19.59363281 43.14038086 19.93164062 C48.82273649 23.08313261 52.18121435 26.72780715 54.35571289 32.76220703 C54.72478316 34.21471931 55.07510767 35.67207733 55.41015625 37.1328125 C55.60988541 37.94525421 55.80961456 38.75769592 56.01539612 39.59475708 C56.69586767 42.3923142 57.34864706 45.19552693 58 48 C58.51653677 50.17550977 59.03331131 52.3509631 59.55029297 54.52636719 C60.93990289 60.41985011 62.28597434 66.32234356 63.61401367 72.22998047 C64.16900286 74.68654396 64.73066993 77.14160713 65.29858398 79.59521484 C66.12879676 83.18277625 66.93964165 86.77422035 67.74609375 90.3671875 C68.0032164 91.46296112 68.26033905 92.55873474 68.5252533 93.68771362 C68.86164574 95.21683884 68.86164574 95.21683884 69.20483398 96.77685547 C69.50864235 98.11319534 69.50864235 98.11319534 69.81858826 99.47653198 C70.03511059 102.48839419 69.30025955 104.30762182 68 107 C64.05539025 106.40604458 61.17116171 105.19171221 57.7109375 103.2265625 C56.18774902 102.36804688 56.18774902 102.36804688 54.63378906 101.4921875 C53.55838867 100.87601563 52.48298828 100.25984375 51.375 99.625 C49.71549316 98.68140625 49.71549316 98.68140625 48.02246094 97.71875 C45.76368059 96.43285257 43.50651415 95.14411603 41.25097656 93.85253906 C38.2798982 92.15949741 35.29612466 90.49265172 32.3046875 88.8359375 C30.61952695 87.89109697 28.93461472 86.94581337 27.25 86 C26.48349121 85.58057129 25.71698242 85.16114258 24.92724609 84.72900391 C24.21391113 84.32343262 23.50057617 83.91786133 22.765625 83.5 C22.15493164 83.1596875 21.54423828 82.819375 20.91503906 82.46875 C15.7391862 78.49910048 13.44833616 74.58559454 12.05078125 68.28515625 C11.89668289 67.6107399 11.74258453 66.93632355 11.58381653 66.24147034 C11.23585361 64.70278869 10.89664447 63.16211075 10.56451416 61.61993408 C9.94032888 58.72306383 9.29185847 55.83215442 8.64208984 52.94091797 C7.37930911 47.28711505 6.1541497 41.62589099 4.94360352 35.96069336 C4.43583334 33.59465158 3.92273402 31.22974772 3.40454102 28.8659668 C2.64741888 25.41173079 1.90595685 21.95446165 1.16796875 18.49609375 C0.93474411 17.4449791 0.70151947 16.39386444 0.46122742 15.31089783 C-0.68912367 9.8257059 -1.25401621 5.48866948 0 0 Z " fill="#FFFFFF" transform="translate(134,450)"/>
<path d="M0 0 C4.62 0 9.24 0 14 0 C16.688615 6.78059664 19.37617278 13.56161096 22.06274414 20.34301758 C22.97716565 22.6507505 23.89187788 24.95836825 24.80688477 27.26586914 C26.12071641 30.57928847 27.43350799 33.89311821 28.74609375 37.20703125 C29.36175453 38.75871758 29.36175453 38.75871758 29.98985291 40.3417511 C30.37017166 41.3025206 30.75049042 42.2632901 31.14233398 43.25317383 C31.47764633 44.09922684 31.81295868 44.94527985 32.15843201 45.81697083 C32.81794164 47.52774023 33.42019961 49.26059884 34 51 C36.81368048 39.46988553 38.95688174 27.83866498 41.09863281 16.16943359 C41.55467648 13.69046331 42.01537773 11.21239311 42.4765625 8.734375 C42.68437851 7.58929474 42.68437851 7.58929474 42.89639282 6.42108154 C43.88688349 1.11311651 43.88688349 1.11311651 45 0 C47.01964199 -0.07244053 49.04167124 -0.08377188 51.0625 -0.0625 C52.16722656 -0.05347656 53.27195312 -0.04445313 54.41015625 -0.03515625 C55.26480469 -0.02355469 56.11945313 -0.01195312 57 0 C54.06049243 16.81534523 50.98882473 33.60618106 47.86373901 50.38793945 C47.45362755 52.59276523 47.04488125 54.79784535 46.63748169 57.00317383 C46.05906667 60.1317573 45.47553485 63.25934391 44.890625 66.38671875 C44.71476364 67.34277512 44.53890228 68.29883148 44.35771179 69.28385925 C44.11151848 70.59100639 44.11151848 70.59100639 43.86035156 71.92456055 C43.71776917 72.69060104 43.57518677 73.45664154 43.42828369 74.24589539 C43 76 43 76 42 77 C39.98035801 77.07244053 37.95832876 77.08377188 35.9375 77.0625 C34.83277344 77.05347656 33.72804688 77.04445313 32.58984375 77.03515625 C31.73519531 77.02355469 30.88054688 77.01195312 30 77 C22.79735722 59.74263664 15.7198805 42.45259286 9 25 C7.31265936 30.53683498 6.1422506 36.07680807 5.08984375 41.765625 C4.91747696 42.68083923 4.74511017 43.59605347 4.56752014 44.53900146 C4.02107919 47.44209584 3.47893379 50.34596794 2.9375 53.25 C2.39207447 56.16823088 1.84568091 59.08626817 1.29676819 62.00384521 C0.95628482 63.81419531 0.61786195 65.62493441 0.28172302 67.43609619 C0.05127037 68.66317291 0.05127037 68.66317291 -0.18383789 69.91503906 C-0.31770401 70.63338928 -0.45157013 71.3517395 -0.5894928 72.09185791 C-1 74 -1 74 -2 77 C-5.96 77 -9.92 77 -14 77 C-13.24846895 68.64378715 -11.65306644 60.47307504 -10.05859375 52.24609375 C-9.76825451 50.73443869 -9.47822562 49.22272398 -9.18849182 47.71095276 C-8.43042464 43.75997036 -7.66818328 39.8098048 -6.9050293 35.85980225 C-6.12488757 31.81783295 -5.34875221 27.77509464 -4.57226562 23.73242188 C-3.05206675 15.82086142 -1.52708094 7.91023497 0 0 Z " fill="#FFFFFF" transform="translate(601,597)"/>
<path d="M0 0 C4.62 0 9.24 0 14 0 C16.688615 6.78059664 19.37617278 13.56161096 22.06274414 20.34301758 C22.97716565 22.6507505 23.89187788 24.95836825 24.80688477 27.26586914 C26.12071641 30.57928847 27.43350799 33.89311821 28.74609375 37.20703125 C29.36175453 38.75871758 29.36175453 38.75871758 29.98985291 40.3417511 C30.37017166 41.3025206 30.75049042 42.2632901 31.14233398 43.25317383 C31.47764633 44.09922684 31.81295868 44.94527985 32.15843201 45.81697083 C32.81794164 47.52774023 33.42019961 49.26059884 34 51 C36.81368048 39.46988553 38.95688174 27.83866498 41.09863281 16.16943359 C41.55467648 13.69046331 42.01537773 11.21239311 42.4765625 8.734375 C42.68437851 7.58929474 42.68437851 7.58929474 42.89639282 6.42108154 C43.88688349 1.11311651 43.88688349 1.11311651 45 0 C48.99984478 -0.14346646 52.99829982 -0.04212316 57 0 C54.30287683 15.80191428 51.44974094 31.5711758 48.48071289 47.32421875 C47.79891627 50.94718186 47.12308571 54.57123035 46.44726562 58.1953125 C46.01338156 60.50267203 45.5791507 62.80996638 45.14453125 65.1171875 C44.94350296 66.19918427 44.74247467 67.28118103 44.53535461 68.39596558 C44.34813339 69.38275299 44.16091217 70.36954041 43.96801758 71.38623047 C43.80465408 72.25617645 43.64129059 73.12612244 43.47297668 74.02243042 C43 76 43 76 42 77 C39.98035801 77.07244053 37.95832876 77.08377188 35.9375 77.0625 C34.83277344 77.05347656 33.72804688 77.04445313 32.58984375 77.03515625 C31.73519531 77.02355469 30.88054687 77.01195312 30 77 C22.62840835 59.45985425 15.52112168 41.87799065 9 24 C5.98193325 38.108249 3.15302414 52.23599447 0.61254883 66.4387207 C0.41556396 67.52886475 0.2185791 68.61900879 0.015625 69.7421875 C-0.15678711 70.7101123 -0.32919922 71.67803711 -0.50683594 72.67529297 C-1 75 -1 75 -2 77 C-5.96 77 -9.92 77 -14 77 C-12.69157167 67.21646821 -11.05171341 57.54282884 -9.1796875 47.8515625 C-8.91321836 46.45915072 -8.64703961 45.06668333 -8.38113403 43.67416382 C-7.69027183 40.06031671 -6.99554553 36.44722366 -6.29992676 32.83428955 C-5.58687342 29.12696528 -4.87759445 25.41891909 -4.16796875 21.7109375 C-2.78227528 14.47325795 -1.39213695 7.23644348 0 0 Z " fill="#FFFFFF" transform="translate(1231,597)"/>
<path d="M0 0 C6.67810458 4.45605189 11.32025563 10.65028707 13.18359375 18.45703125 C16.03401648 32.96827425 13.10829504 47.98859604 5.18359375 60.45703125 C-0.97926183 68.84004599 -7.63885771 74.0537087 -17.81640625 76.45703125 C-27.60668582 77.57052535 -37.76399894 77.80368053 -45.81640625 71.45703125 C-53.89947884 64.22237277 -56.39310368 56.12404678 -57.06640625 45.51953125 C-56.82992047 31.47227564 -52.5470244 17.55702398 -42.80078125 7.20703125 C-31.49422437 -2.76410553 -14.00275092 -6.68259445 0 0 Z M-35.19140625 17.20703125 C-41.1316228 26.16769689 -44.78537526 36.60457836 -43.81640625 47.45703125 C-42.4786334 53.98912524 -40.68241047 58.82274151 -35.81640625 63.45703125 C-30.04526161 66.26043485 -23.70669681 66.56949447 -17.53515625 64.8046875 C-9.35632176 61.13994051 -5.24505921 54.35849132 -1.85546875 46.34375 C1.59033809 36.77062499 2.35463284 26.7416181 -1.00390625 17.01953125 C-3.87261314 12.96377324 -7.01637284 10.05704239 -11.81640625 8.45703125 C-21.07857256 7.26739521 -29.25522799 9.74952088 -35.19140625 17.20703125 Z " fill="#FFFFFF" transform="translate(939.81640625,598.54296875)"/>
<path d="M0 0 C2.80930585 2.5425996 4.09855934 4.82344729 5.71875 8.234375 C6.21890625 9.265625 6.7190625 10.296875 7.234375 11.359375 C12.3168253 23.19698077 9.78181051 37.54089107 5.46875 49.234375 C0.3956899 60.29604747 -7.34191337 67.60361934 -18.53125 72.234375 C-22.42999992 73.53395831 -26.15457043 73.4580909 -30.21875 73.484375 C-30.99669922 73.505 -31.77464844 73.525625 -32.57617188 73.546875 C-40.5275585 73.59992846 -47.00920235 71.51537503 -52.92578125 66.11328125 C-61.24042456 56.38251864 -61.46826062 44.3721093 -60.53125 32.234375 C-58.68136854 19.61908583 -52.5573154 8.17756061 -42.53125 0.234375 C-29.26092349 -7.79976846 -12.98530101 -9.05764824 0 0 Z M-39.99609375 15.09375 C-47.18274974 25.11483774 -48.76008106 36.08686798 -47.53125 48.234375 C-46.06001165 53.36400514 -43.8665714 57.75327166 -39.40625 60.859375 C-34.03779839 63.31552933 -27.90233563 63.17569036 -22.29296875 61.609375 C-14.43923193 58.19338073 -9.40318484 51.2907755 -6.30859375 43.5078125 C-3.30055981 34.7104469 -1.72157263 24.82246594 -4.71875 15.796875 C-7.2723737 10.77768358 -10.29774721 7.38435452 -15.53125 5.234375 C-26.26582813 3.80087544 -33.25481592 6.80151758 -39.99609375 15.09375 Z " fill="#FFFFFF" transform="translate(1206.53125,601.765625)"/>
<path d="M0 0 C3.90243427 3.21697675 5.83921553 6.36790823 6.625 11.375 C6.85541093 17.44946984 5.45338907 22.61783015 1.625 27.375 C-0.59718152 29.5304207 -2.91923799 31.49178925 -5.375 33.375 C-4.611875 34.055625 -3.84875 34.73625 -3.0625 35.4375 C0.85583642 39.72033283 2.40188468 43.43070932 3.0625 49.1875 C2.75494244 55.78717258 0.36361923 62.19682455 -4.5 66.75 C-13.08319776 73.2658469 -22.86571683 74.55201718 -33.3125 74.5 C-34.08529297 74.50386719 -34.85808594 74.50773438 -35.65429688 74.51171875 C-40.33077846 74.50381261 -44.76249075 74.14886973 -49.375 73.375 C-48.63055215 65.35576401 -47.18388542 57.50979667 -45.6875 49.6015625 C-45.4220524 48.18675976 -45.15683835 46.77191317 -44.8918457 45.35702515 C-44.3391615 42.40998348 -43.78422353 39.46337844 -43.22753906 36.51708984 C-42.51430714 32.74168556 -41.80594357 28.96538775 -41.09913635 25.18877602 C-40.55344091 22.27515211 -40.00562699 19.3619298 -39.4571228 16.44883347 C-39.19502364 15.05587552 -38.93348371 13.66281222 -38.67251587 12.26964188 C-38.30850816 10.32861919 -37.941435 8.38817214 -37.57421875 6.44775391 C-37.36627686 5.34460846 -37.15833496 4.24146301 -36.9440918 3.10488892 C-36.375 0.375 -36.375 0.375 -35.375 -2.625 C-23.65119881 -5.16477898 -10.50927049 -7.04446546 0 0 Z M-24.375 6.375 C-25.04493993 9.49930761 -25.71039364 12.62455386 -26.375 15.75 C-26.66117187 17.08417969 -26.66117187 17.08417969 -26.953125 18.4453125 C-27.13359375 19.29609375 -27.3140625 20.146875 -27.5 21.0234375 C-27.66757812 21.80895996 -27.83515625 22.59448242 -28.0078125 23.40380859 C-28.43604229 25.36851325 -28.43604229 25.36851325 -28.375 27.375 C-19.40783531 27.91938608 -19.40783531 27.91938608 -11.375 24.375 C-7.95578326 20.95578326 -6.4765539 18.24958729 -6.375 13.375 C-7.58871971 10.56428067 -8.5448661 8.91116666 -11.12890625 7.2421875 C-13.91891967 6.16499971 -16.14312116 6.17900288 -19.125 6.25 C-20.10984375 6.26804687 -21.0946875 6.28609375 -22.109375 6.3046875 C-22.85703125 6.32789063 -23.6046875 6.35109375 -24.375 6.375 Z M-30.375 38.375 C-32.38116752 46.6671591 -34.08334692 54.94126517 -35.375 63.375 C-28.617119 63.71040954 -22.33535756 63.95662076 -16.375 60.375 C-12.42046561 56.75702173 -10.53644277 53.62217016 -10.171875 48.3359375 C-10.52760471 44.9017776 -12.14590795 42.90532071 -14.375 40.375 C-17.77213069 38.13546618 -20.61744313 38.1628792 -24.625 38.25 C-26.24148438 38.27707031 -26.24148438 38.27707031 -27.890625 38.3046875 C-29.12039063 38.33949219 -29.12039063 38.33949219 -30.375 38.375 Z " fill="#FFFFFF" transform="translate(436.375,600.625)"/>
<path d="M0 0 C-0.51076681 11.766772 -2.42928921 23.34242709 -4.27368164 34.95849609 C-4.81418678 38.38569541 -5.33398294 41.81566078 -5.85351562 45.24609375 C-6.1992536 47.44290815 -6.54621589 49.63953029 -6.89453125 51.8359375 C-7.04573929 52.85271576 -7.19694733 53.86949402 -7.35273743 54.91708374 C-8.4685226 61.74522841 -9.90500664 67.03551176 -15.05541992 71.96875 C-15.77318604 72.4740625 -16.49095215 72.979375 -17.23046875 73.5 C-18.03419922 74.0775 -18.83792969 74.655 -19.66601562 75.25 C-20.49810547 75.8275 -21.33019531 76.405 -22.1875 77 C-23.82769706 78.1654374 -25.46702275 79.33210213 -27.10546875 80.5 C-27.9140332 81.06968506 -28.72259766 81.63937012 -29.55566406 82.22631836 C-32.79649412 84.57795942 -35.9023426 87.08431011 -38.99780273 89.62329102 C-41.49768146 91.34220531 -43.74920847 92.03093614 -46.8046875 91.77734375 C-51.82767169 89.99874259 -55.93059864 86.35127171 -60 83 C-58.39234962 77.17226738 -55.50629626 72.25613111 -52.5 67.0625 C-51.69695435 65.66849976 -51.69695435 65.66849976 -50.87768555 64.24633789 C-13.51279961 0 -13.51279961 0 0 0 Z " fill="#FFFFFF" transform="translate(146,185)"/>
<path d="M0 0 C4.29 0 8.58 0 13 0 C11.97105453 6.988876 10.85981914 13.94532953 9.52734375 20.8828125 C9.33381821 21.89211823 9.33381821 21.89211823 9.13638306 22.92181396 C8.60444908 25.6861004 8.06961995 28.44979047 7.52905273 31.21240234 C3.4829031 47.89779627 3.4829031 47.89779627 7 64 C11.13899725 66.6745639 15.23214817 66.61312477 20 66 C26.22120755 63.71889056 28.01471502 60.78851022 30.81347656 54.94775391 C32.90859178 49.74272897 33.93407799 44.36759742 35 38.875 C35.24637207 37.66682617 35.49274414 36.45865234 35.74658203 35.21386719 C36.25490084 32.7182468 36.75765208 30.22148604 37.25488281 27.72363281 C38.20693127 22.96588608 39.20200996 18.21768762 40.19921875 13.46923828 C41.14133609 8.98124721 42.07061773 4.49064355 43 0 C47.29 0 51.58 0 56 0 C53.53279765 14.36654113 50.96865807 28.71510043 48.0625 43 C47.8464209 44.12438477 47.6303418 45.24876953 47.40771484 46.40722656 C45.03391344 57.77372537 41.02686889 68.41806303 31 75 C23.11595687 79.4437334 11.99949938 79.53455403 3.296875 77.30859375 C-2.13591917 74.830659 -5.88135079 70.79366364 -8.10742188 65.234375 C-11.96701879 51.24861463 -7.37088279 35.76567958 -4.5 22 C-4.06498864 19.85705812 -3.63138481 17.71383001 -3.19921875 15.5703125 C-2.14898476 10.37677108 -1.07986922 5.18745686 0 0 Z " fill="#FFFFFF" transform="translate(457,597)"/>
<path d="M0 0 C4.29 0 8.58 0 13 0 C12.47512055 2.94706906 11.95011653 5.89411597 11.42456055 8.84106445 C10.97220616 11.37853845 10.52055405 13.91613773 10.06958008 16.45385742 C8.99672902 22.4779787 7.91363221 28.49920971 6.77734375 34.51171875 C6.59268555 35.49640137 6.40802734 36.48108398 6.21777344 37.49560547 C5.87338565 39.32504666 5.52405747 41.15356726 5.16894531 42.98095703 C3.71484051 50.74273265 3.11946774 56.93188767 7 64 C11.12245772 66.64012718 15.25409363 66.66855377 20 66 C25.81412744 63.03808602 29.39807146 59.16736668 31.47412109 53.00366211 C33.15819883 47.78716865 34.22042424 42.5109984 35.2265625 37.12890625 C35.41971039 36.12536606 35.61285828 35.12182587 35.81185913 34.08787537 C36.42199351 30.9138192 37.02403535 27.73830396 37.625 24.5625 C38.23421996 21.36193314 38.84519754 18.16172594 39.45956421 14.96214294 C39.84011781 12.9784404 40.21751822 10.99412984 40.59146118 9.00917053 C40.76188934 8.11741623 40.9323175 7.22566193 41.10791016 6.30688477 C41.33083237 5.12848778 41.33083237 5.12848778 41.55825806 3.92628479 C42 2 42 2 43 0 C46.96 0 50.92 0 55 0 C54.38850947 9.72090092 52.63684716 19.14284572 50.78125 28.68774414 C50.25230824 31.42555252 49.74307566 34.1665717 49.234375 36.90820312 C46.59327888 50.78109594 43.65562713 65.14762852 32 74.375 C23.45143994 79.00547003 12.72172448 79.70464482 3.2890625 77.3125 C-1.97678237 74.8914219 -5.50070057 70.96594086 -8.10961914 65.80493164 C-9.25242689 62.20478955 -9.38059028 58.79958317 -9.37109375 55.05859375 C-9.36927597 54.27769882 -9.36745819 53.49680389 -9.36558533 52.69224548 C-9.16408876 42.62379342 -7.07969443 32.89471541 -5.0625 23.0625 C-4.68403263 21.14678291 -4.30707183 19.23076754 -3.93164062 17.31445312 C-3.24593136 13.84460108 -2.55679745 10.37559658 -1.84790039 6.91040039 C-1.6380526 5.88264244 -1.6380526 5.88264244 -1.42396545 4.8341217 C-1 3 -1 3 0 0 Z " fill="#FFFFFF" transform="translate(1012,597)"/>
<path d="M0 0 C13.53 0 27.06 0 41 0 C40 9 40 9 39 11 C29.43 11 19.86 11 10 11 C9.67 14.63 9.34 18.26 9 22 C8.34 24.97 7.68 27.94 7 31 C15.58 31 24.16 31 33 31 C32.67 34.63 32.34 38.26 32 42 C18.635 42.495 18.635 42.495 5 43 C3.72534506 49.8204325 3.72534506 49.8204325 2.45727539 56.64208984 C2.21738892 57.91366943 2.21738892 57.91366943 1.97265625 59.2109375 C1.81031494 60.08024902 1.64797363 60.94956055 1.48071289 61.84521484 C1 64 1 64 0 66 C9.9 66 19.8 66 30 66 C29 76 29 76 28 77 C26.64905018 77.09268999 25.29332909 77.11747326 23.93920898 77.11352539 C23.07839218 77.11344986 22.21757538 77.11337433 21.33067322 77.11329651 C20.39526199 77.10813522 19.45985077 77.10297394 18.49609375 77.09765625 C17.54307877 77.0962413 16.59006378 77.09482635 15.60816956 77.09336853 C12.55124835 77.08775152 9.49439923 77.07519616 6.4375 77.0625 C4.37044376 77.05748719 2.30338638 77.05292391 0.23632812 77.04882812 C-4.84247588 77.03777656 -9.9212257 77.02050055 -15 77 C-12.10645382 60.33609195 -9.03117355 43.70913709 -5.86373901 27.09524536 C-5.45398026 24.94527008 -5.04523067 22.79510222 -4.63748169 20.64474487 C-4.0583405 17.59328225 -3.47511816 14.54262893 -2.890625 11.4921875 C-2.71476364 10.56317123 -2.53890228 9.63415497 -2.35771179 8.67698669 C-2.19358292 7.82564651 -2.02945404 6.97430634 -1.86035156 6.09716797 C-1.71776917 5.35111298 -1.57518677 4.60505798 -1.42828369 3.83639526 C-1 2 -1 2 0 0 Z " fill="#FFFFFF" transform="translate(671,597)"/>
<path d="M0 0 C-0.47730838 1.4589426 -0.95691042 2.91713496 -1.4375 4.375 C-1.70433594 5.18710937 -1.97117187 5.99921875 -2.24609375 6.8359375 C-3 9 -3 9 -4 11 C-4.6290625 10.7834375 -5.258125 10.566875 -5.90625 10.34375 C-12.79147739 8.10397723 -18.37718722 6.59112836 -25.375 9.3125 C-28.21698375 10.89220247 -28.21698375 10.89220247 -30 14 C-30.58369443 17.41538144 -30.58369443 17.41538144 -30 21 C-26.74632726 24.74969545 -23.1926766 27.32242492 -19 29.9375 C-12.65231953 34.08610689 -8.4813507 37.65220718 -6 45 C-5.0841478 52.62500204 -5.64951197 59.5320178 -10 66 C-14.54254514 71.24405211 -20.27639538 74.34370781 -27.171875 75.30175781 C-29.41541981 75.43649026 -31.6277063 75.46737718 -33.875 75.4375 C-34.65931396 75.43137695 -35.44362793 75.42525391 -36.25170898 75.41894531 C-42.13740307 75.26074409 -48.17275429 74.6974648 -53 71 C-54.15049387 68.51244568 -54.16041927 67.44175757 -53.22265625 64.859375 C-52.83980469 64.16328125 -52.45695313 63.4671875 -52.0625 62.75 C-51.68222656 62.04359375 -51.30195312 61.3371875 -50.91015625 60.609375 C-50.60980469 60.07828125 -50.30945313 59.5471875 -50 59 C-44 61 -44 61 -41.25 62.125 C-35.28790987 63.73017811 -30.05303827 64.06318053 -24.5 61.1875 C-21.06841289 58.18486128 -20.06939067 56.71703688 -19.625 52.125 C-19.49692895 49.1560802 -19.97781903 48.03436714 -21.62109375 45.48828125 C-24.33063343 42.65416504 -27.02857772 40.98962485 -30.4375 39.0625 C-36.68892047 35.39814318 -41.15053662 31.84849568 -44 25 C-44.90254124 17.65373408 -44.56518103 11.01957498 -40 5 C-29.48890452 -6.68195168 -13.3694319 -6.68471595 0 0 Z " fill="#FFFFFF" transform="translate(811,600)"/>
<path d="M0 0 C-0.47730838 1.4589426 -0.95691042 2.91713496 -1.4375 4.375 C-1.70433594 5.18710937 -1.97117187 5.99921875 -2.24609375 6.8359375 C-3 9 -3 9 -4 11 C-4.6290625 10.7834375 -5.258125 10.566875 -5.90625 10.34375 C-12.79147739 8.10397723 -18.37718722 6.59112836 -25.375 9.3125 C-28.21698375 10.89220247 -28.21698375 10.89220247 -30 14 C-30.58369443 17.41538144 -30.58369443 17.41538144 -30 21 C-26.74632726 24.74969545 -23.1926766 27.32242492 -19 29.9375 C-12.64488819 34.09096374 -8.49576688 37.65194816 -6 45 C-4.88848768 53.2719917 -5.99546774 60.222778 -11 67 C-17.62751807 73.55947374 -24.64447501 75.39409916 -33.75 75.375 C-34.9400061 75.37258301 -34.9400061 75.37258301 -36.15405273 75.37011719 C-42.08893179 75.24638542 -48.12573716 74.73347792 -53 71 C-54.15049387 68.51244568 -54.16041927 67.44175757 -53.22265625 64.859375 C-52.83980469 64.16328125 -52.45695312 63.4671875 -52.0625 62.75 C-51.68222656 62.04359375 -51.30195313 61.3371875 -50.91015625 60.609375 C-50.60980469 60.07828125 -50.30945313 59.5471875 -50 59 C-47.15857825 59.92511406 -44.36734165 60.83754528 -41.6328125 62.046875 C-37.14467772 63.6716597 -32.7040641 63.57248874 -28 63 C-24.08924075 61.01031547 -22.42310902 59.63466354 -20 56 C-19.35305903 50.41443615 -19.35305903 50.41443615 -21.62109375 45.48828125 C-24.33063343 42.65416504 -27.02857772 40.98962485 -30.4375 39.0625 C-36.68892047 35.39814318 -41.15053662 31.84849568 -44 25 C-44.90254124 17.65373408 -44.56518103 11.01957498 -40 5 C-29.48890452 -6.68195168 -13.3694319 -6.68471595 0 0 Z " fill="#FFFFFF" transform="translate(562,600)"/>
<path d="M0 0 C-0.47730838 1.4589426 -0.95691042 2.91713496 -1.4375 4.375 C-1.70433594 5.18710937 -1.97117187 5.99921875 -2.24609375 6.8359375 C-3 9 -3 9 -4 11 C-4.6290625 10.7834375 -5.258125 10.566875 -5.90625 10.34375 C-12.79842739 8.10171639 -18.34272534 6.64545383 -25.375 9.25 C-28.14078428 11.09385619 -29.09845711 11.8445999 -30 15 C-30.58345476 17.95746492 -30.58345476 17.95746492 -30 21 C-27.1472874 24.8364066 -23.68763751 26.84250581 -19.625 29.3125 C-13.72695452 32.9549416 -8.25251601 37.24245196 -6 44 C-5.38563368 51.9263327 -4.87010987 59.50819213 -10 66 C-15.24597717 71.80377727 -21.55389818 74.96545604 -29.40234375 75.43359375 C-30.91389548 75.45610273 -32.42590656 75.45700755 -33.9375 75.4375 C-34.72511719 75.43355225 -35.51273438 75.42960449 -36.32421875 75.42553711 C-42.25042545 75.27897633 -46.93896985 74.21478701 -52 71 C-52.66 70.67 -53.32 70.34 -54 70 C-53.52269162 68.5410574 -53.04308958 67.08286504 -52.5625 65.625 C-52.29566406 64.81289063 -52.02882813 64.00078125 -51.75390625 63.1640625 C-51 61 -51 61 -50 59 C-47.23522028 59.62725179 -45.02379713 60.4207771 -42.375 61.5625 C-36.38539172 63.83095239 -30.65278232 63.8199509 -24.5625 61.9375 C-21.08198859 59.30589382 -20.11989096 57.1995911 -19 53 C-19.32228031 49.32600451 -19.88024613 47.08641132 -22.57421875 44.47265625 C-24.65998147 42.87766123 -26.79740756 41.42949708 -29 40 C-41.38618926 31.84143223 -41.38618926 31.84143223 -44 24 C-44.77919362 16.92338908 -43.91142877 11.02290802 -40 5 C-30.36458355 -6.1722044 -12.2940353 -7.64962197 0 0 Z " fill="#FFFFFF" transform="translate(1338,600)"/>
<path d="M0 0 C1.25 2.25 1.25 2.25 1 5 C-0.14568295 7.51631735 -1.48847672 9.66400948 -3 12 C-3.556875 11.7834375 -4.11375 11.566875 -4.6875 11.34375 C-11.28611526 8.93614713 -16.42877257 7.85451196 -23.3125 10.0625 C-26.91305353 12.65824789 -27.91152692 14.71867254 -29 19 C-27.43155617 25.40447897 -22.24397361 27.74160863 -17 31 C-10.85081259 35.14261047 -6.41357099 38.75928703 -4 46 C-3.11792332 54.27891974 -3.8110346 61.26513035 -9 68 C-15.92109628 74.0324926 -22.64689398 76.39375839 -31.6875 76.375 C-32.48534912 76.37338867 -33.28319824 76.37177734 -34.10522461 76.37011719 C-40.05720198 76.24673507 -46.11034849 75.74526499 -51 72 C-52.15049387 69.51244568 -52.16041927 68.44175757 -51.22265625 65.859375 C-50.83980469 65.16328125 -50.45695313 64.4671875 -50.0625 63.75 C-49.68222656 63.04359375 -49.30195312 62.3371875 -48.91015625 61.609375 C-48.60980469 61.07828125 -48.30945313 60.5471875 -48 60 C-42.26666667 61.86666667 -42.26666667 61.86666667 -39.75 63.125 C-34.29879585 64.85947405 -28.91535487 64.69649268 -23.5625 62.75 C-20.91260656 60.94031667 -19.43369825 59.86739651 -18 57 C-17.44447016 51.90764312 -17.9533209 49.08517752 -21 45 C-23.25618665 43.41366255 -25.44055054 42.00521189 -27.8125 40.625 C-34.00959163 36.84057712 -39.58572953 33.24281141 -42 26 C-42.6891116 18.80370601 -42.95383962 12.5964953 -38.48046875 6.64453125 C-29.03434716 -3.84839009 -12.62337594 -7.32155804 0 0 Z " fill="#FFFFFF" transform="translate(758,599)"/>
<path d="M0 0 C1.1836643 0.63599873 2.35911447 1.29011567 3.5 2 C3.02269162 3.4589426 2.54308958 4.91713496 2.0625 6.375 C1.79566406 7.18710937 1.52882813 7.99921875 1.25390625 8.8359375 C0.5 11 0.5 11 -0.5 13 C-1.1290625 12.7834375 -1.758125 12.566875 -2.40625 12.34375 C-9.29147739 10.10397723 -14.87718722 8.59112836 -21.875 11.3125 C-24.71698375 12.89220247 -24.71698375 12.89220247 -26.5 16 C-27.02462198 20.04708388 -27.11657586 22.14955053 -24.6875 25.5 C-22.06211347 27.79627825 -19.09694261 29.50153635 -16.125 31.3125 C-10.22695452 34.9549416 -4.75251601 39.24245196 -2.5 46 C-1.88563368 53.9263327 -1.37010987 61.50819213 -6.5 68 C-11.7329517 73.78936681 -18.03613774 76.96244185 -25.8671875 77.43359375 C-27.36961839 77.45645004 -28.87252591 77.45731391 -30.375 77.4375 C-31.15931396 77.43210205 -31.94362793 77.4267041 -32.75170898 77.42114258 C-38.71859701 77.26507697 -44.49664549 76.53665011 -49.5 73 C-50.71386936 69.35839192 -50.1674695 68.66834531 -48.5625 65.3125 C-47.99208984 64.10013672 -47.99208984 64.10013672 -47.41015625 62.86328125 C-46.95962891 61.94095703 -46.95962891 61.94095703 -46.5 61 C-40.5 63 -40.5 63 -37.75 64.125 C-31.97303202 65.68033753 -26.62426568 65.79659963 -21 63.6875 C-18.28077469 62.08207479 -18.28077469 62.08207479 -16.5 59 C-15.81982611 54.77659466 -15.91704378 51.13941442 -17.875 47.3125 C-21.02850584 44.53441152 -24.40303943 42.56316539 -28.03125 40.4609375 C-34.10696936 36.86549598 -38.37545537 32.88976621 -40.5 26 C-41.60294154 18.09352018 -39.82934047 12.39418183 -35.3125 5.8125 C-26.54892844 -2.95107156 -11.26958954 -5.09471859 0 0 Z " fill="#FFFFFF" transform="translate(878.5,598)"/>
<path d="M0 0 C0.99261337 0.00222061 1.98522675 0.00444122 3.00791931 0.00672913 C4.12900589 0.00680466 5.25009247 0.00688019 6.40515137 0.00695801 C8.2348069 0.01469994 8.2348069 0.01469994 10.10142517 0.02259827 C11.96377052 0.02472069 11.96377052 0.02472069 13.86373901 0.02688599 C17.16982383 0.03154861 20.47584039 0.04053955 23.78190613 0.05158997 C27.15338042 0.06180625 30.52486175 0.06638407 33.89634705 0.07142639 C40.5155091 0.08248057 47.13462964 0.09975792 53.75376892 0.12025452 C53.09376892 3.75025452 52.43376892 7.38025452 51.75376892 11.12025452 C44.49376892 11.12025452 37.23376892 11.12025452 29.75376892 11.12025452 C29.25876892 14.02837952 28.76376892 16.93650452 28.25376892 19.93275452 C24.9636726 39.03244296 21.32137786 58.07093648 17.75376892 77.12025452 C13.46376892 77.12025452 9.17376892 77.12025452 4.75376892 77.12025452 C5.40070724 69.52180573 6.56925561 62.1421547 8.00376892 54.65541077 C8.22194275 53.50028488 8.44011658 52.345159 8.66490173 51.1550293 C9.1234805 48.73183785 9.5841236 46.30903624 10.04673767 43.88661194 C10.75610988 40.17049117 11.45857121 36.45311277 12.16001892 32.73548889 C12.60753297 30.37538647 13.05543581 28.01535773 13.50376892 25.65541077 C13.71420837 24.54295486 13.92464783 23.43049896 14.14146423 22.28433228 C14.33836853 21.25573593 14.53527283 20.22713959 14.73814392 19.16737366 C14.99676208 17.81030052 14.99676208 17.81030052 15.26060486 16.42581177 C15.75376892 14.12025452 15.75376892 14.12025452 16.75376892 11.12025452 C9.82376892 11.12025452 2.89376892 11.12025452 -4.24623108 11.12025452 C-3.15107526 0.16869637 -3.15107526 0.16869637 0 0 Z " fill="#FFFFFF" transform="translate(1074.2462310791016,596.8797454833984)"/>
<path d="M0 0 C4.29 0 8.58 0 13 0 C9.18657114 21.70315502 5.12688903 43.35464541 1 65 C10.57 65.33 20.14 65.66 30 66 C29.34 69.63 28.68 73.26 28 77 C14.14 77 0.28 77 -14 77 C-12.87489105 64.62380154 -12.87489105 64.62380154 -11.80078125 59.015625 C-11.56383545 57.76483154 -11.32688965 56.51403809 -11.08276367 55.2253418 C-10.82618447 53.9001939 -10.56942577 52.57508075 -10.3125 51.25 C-10.04687764 49.86051016 -9.78166718 48.47094153 -9.5168457 47.08129883 C-8.96532076 44.1930514 -8.41034753 41.30549738 -7.85253906 38.41845703 C-7.13795454 34.71960605 -6.42991576 31.01954033 -5.72413635 27.31900024 C-5.17857208 24.4602506 -4.63075149 21.6019374 -4.0821228 18.74377441 C-3.82015026 17.37870519 -3.55861087 16.01355277 -3.29751587 14.64831543 C-2.93354188 12.74820824 -2.56645316 10.84869849 -2.19921875 8.94921875 C-1.88730591 7.33019653 -1.88730591 7.33019653 -1.5690918 5.6784668 C-1 3 -1 3 0 0 Z " fill="#FFFFFF" transform="translate(969,597)"/>
<path d="M0 0 C4.29 0 8.58 0 13 0 C11.66859864 9.78386642 10.05239289 19.45365358 8.1796875 29.1484375 C7.91321836 30.54084928 7.64703961 31.93331667 7.38113403 33.32583618 C6.69027183 36.93968329 5.99554553 40.55277634 5.29992676 44.16571045 C4.58687342 47.87303472 3.87759445 51.58108091 3.16796875 55.2890625 C1.78227528 62.52674205 0.39213695 69.76355652 -1 77 C-5.29 77 -9.58 77 -14 77 C-13.24846895 68.64378715 -11.65306644 60.47307504 -10.05859375 52.24609375 C-9.76825451 50.73443869 -9.47822562 49.22272398 -9.18849182 47.71095276 C-8.43042464 43.75997036 -7.66818328 39.8098048 -6.9050293 35.85980225 C-6.12488757 31.81783295 -5.34875221 27.77509464 -4.57226562 23.73242188 C-3.05206675 15.82086142 -1.52708094 7.91023497 0 0 Z " fill="#FFFFFF" transform="translate(1132,597)"/>
<path d="M0 0 C1.65322266 0.01740234 1.65322266 0.01740234 3.33984375 0.03515625 C4.44457031 0.04417969 5.54929687 0.05320312 6.6875 0.0625 C7.54214844 0.07410156 8.39679687 0.08570313 9.27734375 0.09765625 C8.65003021 8.50114652 7.16088141 16.69851192 5.58984375 24.96875 C5.3243163 26.38210846 5.05910383 27.79552613 4.79418945 29.20899963 C4.2420406 32.15016917 3.68708425 35.09078943 3.12988281 38.03100586 C2.41601468 41.79841575 1.70780515 45.56686185 1.0014801 49.33569241 C0.45585864 52.2450396 -0.09196274 55.1539689 -0.64053345 58.06276131 C-0.90258179 59.45293754 -1.16412153 60.84320974 -1.42514038 62.23357964 C-1.78911308 64.16971119 -2.15620239 66.10525608 -2.5234375 68.04077148 C-2.73137939 69.14090073 -2.93932129 70.24102997 -3.15356445 71.37449646 C-3.72265625 74.09765625 -3.72265625 74.09765625 -4.72265625 77.09765625 C-9.01265625 77.09765625 -13.30265625 77.09765625 -17.72265625 77.09765625 C-14.89728455 60.04604114 -11.82019241 43.04926676 -8.58639526 26.07058716 C-8.17633784 23.91725046 -7.76759095 21.76366379 -7.36013794 19.60983276 C-6.7820537 16.55807894 -6.19856214 13.50741201 -5.61328125 10.45703125 C-5.43741989 9.52603104 -5.26155853 8.59503082 -5.08036804 7.63581848 C-4.91623917 6.78759018 -4.75211029 5.93936188 -4.58300781 5.06542969 C-4.36913422 3.94754059 -4.36913422 3.94754059 -4.15093994 2.80706787 C-3.43656206 -0.04423345 -3.04376841 0.1091739 0 0 Z " fill="#FFFFFF" transform="translate(578.72265625,596.90234375)"/>
<path d="M0 0 C4.55949306 1.26652585 8.33940488 3.50717494 12.375 5.9375 C12.76550428 9.2745366 12.62437535 10.59391618 10.6171875 13.359375 C9.83601563 14.12765625 9.05484375 14.8959375 8.25 15.6875 C7.48429687 16.46609375 6.71859375 17.2446875 5.9296875 18.046875 C2.88686647 20.29874867 1.15853633 20.9133703 -2.625 20.9375 C-5.6171875 19.50390625 -5.6171875 19.50390625 -8.5 17.5 C-9.46679688 16.84128906 -10.43359375 16.18257813 -11.4296875 15.50390625 C-12.15414062 14.98699219 -12.87859375 14.47007812 -13.625 13.9375 C-13.11367546 9.92291141 -12.19333123 8.013254 -9.25 5.25 C-8.64414063 4.66863281 -8.03828125 4.08726562 -7.4140625 3.48828125 C-3.29917698 -0.07855183 -3.29917698 -0.07855183 0 0 Z " fill="#FFFFFF" transform="translate(153.625,361.0625)"/>
<path d="M0 0 C-0.66 5.61 -1.32 11.22 -2 17 C-5.33333333 18.33333333 -8.66666667 19.66666667 -12 21 C-13.30904297 21.56074219 -13.30904297 21.56074219 -14.64453125 22.1328125 C-17 23 -17 23 -20 23 C-20.09976553 20.30633077 -20.08244183 17.69020717 -20 15 C-20.02707031 14.15953125 -20.05414063 13.3190625 -20.08203125 12.453125 C-19.90940331 9.37381576 -19.61594908 7.65351202 -18 5 C-12.87008934 1.94704853 -5.91544033 -1.97181344 0 0 Z " fill="#FFFFFF" transform="translate(147,300)"/>
<path d="M0 0 C5.87326843 0.41215919 10.56382088 1.76728358 16 4 C16.495 12.415 16.495 12.415 17 21 C12.10093161 21.97981368 10.31289499 21.83321291 5.6875 20.5625 C4.61886719 20.27503906 3.55023438 19.98757813 2.44921875 19.69140625 C1.64097656 19.46324219 0.83273438 19.23507812 0 19 C-0.1938211 16.02111874 -0.38035102 13.04209754 -0.5625 10.0625 C-0.61857422 9.21236328 -0.67464844 8.36222656 -0.73242188 7.48632812 C-0.80493164 6.27299805 -0.80493164 6.27299805 -0.87890625 5.03515625 C-0.9260376 4.2862915 -0.97316895 3.53742676 -1.02172852 2.76586914 C-1 1 -1 1 0 0 Z " fill="#FFFFFF" transform="translate(116,426)"/>
<path d="M0 0 C1.32 0 2.64 0 4 0 C7.52521533 3.9371506 9.87978532 8.28694077 10.25 13.5625 C8.54909892 18.23997797 5.95191387 22.01897854 3 26 C-0.11401817 25.68170172 -1.60572213 25.413949 -3.80078125 23.109375 C-4.29964844 22.33078125 -4.79851562 21.5521875 -5.3125 20.75 C-5.82425781 19.98171875 -6.33601563 19.2134375 -6.86328125 18.421875 C-8.19921569 15.57555419 -8.48729247 14.10826363 -8 11 C-6.390625 8.10546875 -6.390625 8.10546875 -4.25 5.1875 C-3.55390625 4.21167969 -2.8578125 3.23585938 -2.140625 2.23046875 C-1.43421875 1.49441406 -0.7278125 0.75835937 0 0 Z " fill="#FFFFFF" transform="translate(73,449)"/>
<path d="M0 0 C2.34750764 0.95064359 3.71732017 1.53167968 5.046875 3.734375 C5.27890625 4.39953125 5.5109375 5.0646875 5.75 5.75 C6.11351562 6.73226563 6.11351562 6.73226563 6.484375 7.734375 C7.16017794 10.70381217 7.37542054 12.95793256 7 16 C4.91796875 18.7734375 4.91796875 18.7734375 2.1875 21.375 C0.84751953 22.68597656 0.84751953 22.68597656 -0.51953125 24.0234375 C-3 26 -3 26 -6 26 C-10.11541678 16.44270979 -10.11541678 16.44270979 -9.75 11.875 C-7.04796652 7.43594499 -3.58085177 3.74740301 0 0 Z " fill="#FFFFFF" transform="translate(98,279)"/>
</svg>
